<?xml version="1.0" encoding="UTF-8"?>
<!--Generator: Apple Native CoreSVG 175-->
<!DOCTYPE svg
PUBLIC "-//W3C//DTD SVG 1.1//EN"
       "http://www.w3.org/Graphics/SVG/1.1/DTD/svg11.dtd">
<svg version="1.1" xmlns="http://www.w3.org/2000/svg" xmlns:xlink="http://www.w3.org/1999/xlink" width="28.3325" height="26.1841">
 <g>
  <rect height="26.1841" opacity="0" width="28.3325" x="0" y="0"/>
  <path d="M3.78418 26.1719L16.748 26.1719Q18.6401 26.1719 19.5862 25.2197Q20.5322 24.2676 20.5322 22.3511L20.5322 16.687L18.5669 16.687L18.5669 22.3145Q18.5669 23.23 18.0847 23.7183Q17.6025 24.2065 16.6504 24.2065L3.88184 24.2065Q2.92969 24.2065 2.44751 23.7183Q1.96533 23.23 1.96533 22.3145L1.96533 3.86963Q1.96533 2.9541 2.44751 2.45972Q2.92969 1.96533 3.88184 1.96533L16.6504 1.96533Q17.6025 1.96533 18.0847 2.45972Q18.5669 2.9541 18.5669 3.86963L18.5669 9.48486L20.5322 9.48486L20.5322 3.83301Q20.5322 1.92871 19.5862 0.964355Q18.6401 0 16.748 0L3.78418 0Q1.89209 0 0.946045 0.964355Q0 1.92871 0 3.83301L0 22.3511Q0 24.2676 0.946045 25.2197Q1.89209 26.1719 3.78418 26.1719ZM11.2915 14.0503L23.8281 14.0503L25.6592 13.9771L24.7925 14.8071L22.8271 16.6504Q22.5342 16.9067 22.5342 17.3096Q22.5342 17.688 22.7722 17.9443Q23.0103 18.2007 23.3887 18.2007Q23.7427 18.2007 24.0356 17.9199L28.0151 13.7939Q28.1982 13.6108 28.2654 13.4399Q28.3325 13.269 28.3325 13.0859Q28.3325 12.9028 28.2654 12.7319Q28.1982 12.561 28.0151 12.3779L24.0356 8.25195Q23.7427 7.95898 23.3887 7.95898Q23.0103 7.95898 22.7722 8.20923Q22.5342 8.45947 22.5342 8.83789Q22.5342 9.25293 22.8271 9.50928L24.7925 11.3647L25.6592 12.1948L23.8281 12.1094L11.2915 12.1094Q10.9131 12.1094 10.6323 12.4023Q10.3516 12.6953 10.3516 13.0859Q10.3516 13.4766 10.6323 13.7634Q10.9131 14.0503 11.2915 14.0503Z" fill="#ff453a"/>
 </g>
</svg>
